<svg viewBox="0 0 12 12" xmlns="http://www.w3.org/2000/svg" xmlns:xlink="http://www.w3.org/1999/xlink" width="11.999954" height="12.000000" fill="none" customFrame="#000000">
	<g id="Group">
		<path id="Vector" d="M10.491 1.50905C9.51783 0.535922 8.22401 0 6.84783 0C5.47165 0 4.17783 0.535922 3.20473 1.50905C2.23162 2.48215 1.69568 3.77597 1.69568 5.15213C1.69568 6.41032 2.1439 7.59949 2.9644 8.53786L0.103078 11.3992C-0.0343594 11.5366 -0.0343594 11.7595 0.103078 11.8969C0.171797 11.9656 0.261867 12 0.351914 12C0.441961 12 0.532055 11.9656 0.60075 11.8969L3.46209 9.03558C4.40046 9.85605 5.58963 10.3043 6.84783 10.3043C8.22403 10.3043 9.51781 9.76838 10.4909 8.79525C11.464 7.82215 12 6.52833 12 5.15215C12 3.77597 11.4641 2.48215 10.491 1.50905ZM9.99323 8.29755C8.25884 10.0319 5.43684 10.0319 3.70245 8.29755C1.96807 6.56318 1.96807 3.74114 3.70245 2.00677C4.56973 1.13948 5.7086 0.705984 6.84785 0.705984C7.98682 0.705984 9.12616 1.1397 9.99326 2.00677C11.7276 3.74112 11.7276 6.56316 9.99323 8.29755Z" fill="rgb(146.625,146.625,146.625)" fill-rule="nonzero" transform="matrix(-1,0,0,1,12,0)" />
	</g>
</svg>
